PathFileType	4	(X/Y/Z)	S01_0009_Gait_markers.trc
DataRate	CameraRate	NumFrames	NumMarkers	Units	OrigDataRate	OrigDataStartFrame	OrigNumFrames
250.000000	250.000000	4	54	mm	250.000000	42	343
Frame#	Time	HEAD_ANT			R_HEAD			L_HEAD			C7			R_BACK			L_BACK			STERNUM			R_ACROMION			R_HUM_PROX			R_HUM_ANT			R_HUM_POST			R_ELBOW_LAT			R_ELBOW_MED			R_FOREARM			R_WIRST_LAT			R_WRITS_MED			R_HAND			L_ACROMION			L_HUM_PROX			L_HUM_ANT			L_HUM_POST			L_ELBOW_LAT			L_ELBOW_MED			L_FOREARM			L_WRIST_LAT			L_WIRST_MED			L_HAND			R_ILIAC			SACRUM			L_ILIAC			R_GTROCH			R_THIGH__1			R_THIGH_2			R_THIGH_3			R_THIGH_4			R_SHANK_1			R_SHANK_2			R_SHANK_3			R_SHANK_4			R_HEEL			R_FOOT_LAT			R_FOOT_MED			L_GTROCH			L_THIGH_1			L_THIGH_2			L_THIGH_3			L_THIGH_4			L_SHANK_1			L_SHANK_2			L_SHANK_3			L_SHANK_4			L_HEEL			L_FOOT_LAT			L_FOOT_MED			
		X1	Y1	Z1	X2	Y2	Z2	X3	Y3	Z3	X4	Y4	Z4	X5	Y5	Z5	X6	Y6	Z6	X7	Y7	Z7	X8	Y8	Z8	X9	Y9	Z9	X10	Y10	Z10	X11	Y11	Z11	X12	Y12	Z12	X13	Y13	Z13	X14	Y14	Z14	X15	Y15	Z15	X16	Y16	Z16	X17	Y17	Z17	X18	Y18	Z18	X19	Y19	Z19	X20	Y20	Z20	X21	Y21	Z21	X22	Y22	Z22	X23	Y23	Z23	X24	Y24	Z24	X25	Y25	Z25	X26	Y26	Z26	X27	Y27	Z27	X28	Y28	Z28	X29	Y29	Z29	X30	Y30	Z30	X31	Y31	Z31	X32	Y32	Z32	X33	Y33	Z33	X34	Y34	Z34	X35	Y35	Z35	X36	Y36	Z36	X37	Y37	Z37	X38	Y38	Z38	X39	Y39	Z39	X40	Y40	Z40	X41	Y41	Z41	X42	Y42	Z42	X43	Y43	Z43	X44	Y44	Z44	X45	Y45	Z45	X46	Y46	Z46	X47	Y47	Z47	X48	Y48	Z48	X49	Y49	Z49	X50	Y50	Z50	X51	Y51	Z51	X52	Y52	Z52	X53	Y53	Z53	X54	Y54	Z54	

43	0.168	356.502685546875	1710.034790039062	-301.4914550781246	299.0000610351562	1657.186645507812	-224.7170104980465	298.4498291015625	1661.225830078125	-372.5453491210934	161.1323089599609	1487.84326171875	-302.5769042968747	89.60828399658203	1287.479614257812	-242.605773925781	91.79374694824219	1295.249633789062	-379.9260253906247	339.51416015625	1326.045288085938	-298.2160339355466	232.7100372314453	1440.134033203125	-128.4096679687497	183.0127258300781	1280.889404296875	-40.54354095458956	242.0836181640625	1195.0146484375	-27.94863319396946	120.0405044555664	1198.763427734375	-33.53390121459935	171.6255798339844	1091.586303710938	-19.50825881957984	150.7643127441406	1087.505737304688	-97.8892669677732	253.7601165771484	904.9467163085938	-3.01841378211955	294.5649719238281	836.2005615234375	-33.94983291625958	219.8213043212891	816.7047729492188	-12.86177158355695	279.0709533691406	746.823486328125	18.84524154663103	244.6081390380859	1443.80712890625	-468.2727355957028	237.2756195068359	1279.920166015625	-567.121643066406	305.4776306152344	1204.475708007813	-563.5868530273435	186.0418548583984	1199.112060546875	-597.278381347656	255.2704162597656	1099.620361328125	-605.5272827148435	199.917236328125	1084.9775390625	-551.0678710937498	398.7652282714844	956.5858764648439	-567.3201904296873	441.6508483886719	913.4968872070314	-510.6625671386716	409.8614807128906	871.2821655273439	-571.8842163085935	500.85107421875	856.6620483398439	-554.8502807617185	242.0122222900391	1036.158569335938	-142.2350006103513	115.7773742675781	1011.412475585938	-305.8540344238279	227.2288818359375	1038.388549804688	-486.0708923339841	215.5537719726562	888.3164672851562	-128.6930847167967	342.0061950683594	628.3643188476562	-153.1003265380858	389.0409240722656	663.1893310546875	-148.8842315673827	429.0720520019531	570.6928100585938	-187.5536804199218	367.2725524902344	552.81103515625	-175.3318023681639	423.2574768066406	336.5295104980469	-172.1280059814452	482.4942016601562	332.6722717285157	-185.7491760253905	502.7836608886719	250.3806304931641	-203.0684814453124	439.848388671875	237.5341796875001	-194.8617095947265	463.9671936035156	31.27944374084479	-280.6388854980469	622.5777587890625	41.72045898437504	-189.5983581542969	673.4912719726562	70.20068359375006	-276.36572265625	182.3754272460938	933.1251220703126	-487.5492553710935	183.0400238037109	642.4494628906251	-482.7994079589842	137.91650390625	678.3307495117189	-495.8199768066405	93.79003143310547	585.1468505859376	-466.9803161621093	155.2924346923828	568.8663330078126	-460.6783142089843	-6.125972270965576	333.5221557617189	-454.7995300292968	-66.36493682861328	342.9470825195314	-457.7458496093749	-110.5542831420898	269.369598388672	-440.2021179199218	-52.55629730224609	243.8910522460938	-431.6016845703124	-238.9965209960938	124.5537796020509	-371.7091064453125	-92.13539886474609	20.36479568481455	-427.0745239257812	-54.82189559936523	30.7887039184571	-324.3376159667969	
44	0.172	362.3650512695312	1710.109008789062	-300.537933349609	304.9287414550781	1656.94921875	-223.7160339355465	304.203369140625	1661.069946289062	-371.4236145019528	167.0607147216797	1487.592041015625	-301.5490417480465	95.91750335693359	1287.25732421875	-242.0383758544919	98.45136260986328	1295.029663085938	-378.8370971679685	345.6434326171875	1326.06298828125	-296.6661071777341	238.8980865478516	1439.7158203125	-127.3540420532223	189.6918487548828	1280.283935546875	-39.762397766113	248.9245300292969	1194.451049804688	-27.607669830322	127.5051879882812	1197.806762695312	-32.77963256835911	172.5262756347656	1092.04638671875	-19.28398513793921	157.9009399414062	1086.428100585938	-97.56076049804663	260.7195434570312	904.0987548828125	-2.780439376830854	301.43603515625	835.4727172851562	-34.02534103393536	226.8310089111328	816.000732421875	-12.83929157257062	285.9142456054688	746.0023193359375	18.63050270080583	250.6786346435547	1443.653076171875	-467.3309326171872	243.0907440185547	1279.798217773438	-566.263488769531	311.019775390625	1204.17822265625	-563.1574096679685	191.7391052246094	1198.9501953125	-596.271301269531	260.8347473144531	1099.308349609375	-604.7239990234373	205.65380859375	1085.134887695313	-549.9824218749998	404.2472229003906	956.1229248046876	-567.089172363281	446.3199768066406	912.3552856445314	-510.1749877929685	415.1398315429688	870.7756958007814	-571.7835693359373	506.154541015625	855.9752807617189	-555.1516113281248	248.4505310058594	1035.97509765625	-141.7161712646482	122.382209777832	1011.617858886719	-305.8887939453123	234.0028381347656	1038.000854492188	-485.6968688964841	222.4389038085938	888.2755126953125	-128.0944671630857	348.9872131347656	629.3223266601562	-153.1825561523436	396.1316833496094	664.1734619140625	-149.2625885009764	435.8458251953125	571.1284790039062	-187.7178649902343	373.9817504882812	553.72412109375	-175.2682952880858	429.40478515625	337.5402221679688	-172.9766082763671	488.5731201171875	333.0514831542969	-185.9210052490234	508.1637573242188	250.367660522461	-203.5753784179687	445.0785827636719	238.6293945312501	-194.9805603027343	464.9720764160156	31.95442581176764	-280.1935729980469	624.6940307617188	39.48469924926762	-189.9856414794922	675.1486206054688	68.17927551269537	-277.0911254882812	189.1797637939453	932.4923095703126	-487.3324890136716	190.3781127929688	641.9566040039064	-482.7393798828123	145.1653289794922	677.6750488281251	-495.8401489257811	101.2880630493164	584.3886108398439	-466.9760131835936	162.8925933837891	567.9274902343751	-460.6025390624999	-0.7069492340087891	333.7618713378907	-455.0433959960937	-60.57644271850586	343.861297607422	-458.5414733886718	-105.9181442260742	271.2187500000001	-441.1491699218749	-48.38272094726562	244.7483978271485	-432.2979736328124	-236.4641723632812	128.3907318115235	-372.8621215820312	-91.21831512451172	20.27247238159189	-425.7976989746094	-54.69307327270508	31.0042972564698	-324.509033203125	
45	0.176	368.2385559082031	1710.370239257812	-299.4841003417965	310.8133239746094	1657.0546875	-222.7053070068356	310.0391540527344	1661.083618164062	-370.2848815917965	173.07958984375	1487.317016601562	-300.3955688476559	102.2237777709961	1287.145751953125	-241.3532714843747	104.6531219482422	1294.901000976562	-377.8177185058591	352.1748962402344	1325.896850585938	-296.6770019531247	245.0803833007812	1439.270263671875	-126.3655471801755	196.2967987060547	1279.568481445312	-38.9687957763669	255.8405151367188	1193.874267578125	-27.21478843688938	134.3402862548828	1197.021606445312	-32.03432083129857	179.7393798828125	1091.177612304688	-18.83563423156714	164.683837890625	1085.613647460938	-97.06090545654273	267.3358764648438	903.1592407226562	-2.653538942336835	308.4201965332031	834.6417236328125	-33.89672851562482	233.8416595458984	815.1210327148438	-12.71742153167706	292.9335632324219	745.3018798828125	18.69304084777849	256.8670654296875	1443.826782226562	-466.4541625976559	248.6362152099609	1279.817993164063	-565.3614501953123	316.8147277832031	1203.979248046875	-562.5422363281248	197.3867797851562	1198.979858398438	-595.2764892578123	266.2956237792969	1099.254272460938	-603.804992675781	211.5974426269531	1084.89990234375	-549.112121582031	409.4582824707031	955.6329345703126	-566.8978881835935	451.7133178710938	911.8374023437501	-510.0903320312498	420.2675476074219	870.2721557617189	-571.5489501953123	511.294189453125	855.3983764648439	-555.4157104492185	255.1010437011719	1035.760375976562	-141.1008300781248	128.8061981201172	1011.919677734375	-306.2185974121091	240.7571716308594	1037.67529296875	-485.4090576171873	229.41650390625	888.4425048828125	-127.3410720825193	355.9570007324219	630.5701904296875	-153.7106018066405	403.0783386230469	665.3941040039062	-150.5386352539061	442.8806762695312	572.2947998046875	-187.9072265624999	380.7975463867188	554.4183959960938	-175.5638885498046	435.63037109375	338.6603393554688	-173.3505249023437	494.7784423828125	333.3850097656251	-186.1458587646484	513.3800048828125	250.6312255859376	-204.3212127685546	450.1807861328125	239.2832336425782	-195.2598876953124	465.9039306640625	32.60803604125983	-279.5520324707031	626.5348510742188	37.95242309570317	-190.2734527587891	677.0867309570312	66.58448791503912	-277.7361450195312	195.9587554931641	931.8981323242189	-487.2290344238279	198.1554260253906	641.1242065429689	-482.3341674804686	152.6748962402344	676.8115844726564	-495.4304199218748	108.9519348144531	583.5144653320314	-466.6889648437499	170.5766296386719	567.2394409179689	-460.5090026855468	5.154144763946533	333.922088623047	-455.4999389648437	-54.49139785766602	345.015838623047	-459.1604614257812	-100.9278030395508	272.6426391601564	-442.0122680664062	-43.77441787719727	245.4156341552735	-432.6437683105468	-233.4735107421875	132.2919006347657	-374.8493957519531	-90.55300903320312	20.65286827087412	-425.8244934082031	-54.52240371704102	31.23197555541999	-324.7161254882812	
46	0.18	374.1832580566406	1710.7490234375	-298.4225463867184	317.0104064941406	1657.31298828125	-221.5771789550778	316.0699157714844	1661.495727539062	-369.2965698242184	179.2694549560547	1487.324951171875	-299.2827453613278	108.3803329467773	1287.291748046875	-240.5955810546872	110.9516067504883	1294.763061523438	-376.7597351074216	358.4540710449219	1326.025024414062	-295.8140869140622	251.3596038818359	1439.060791015625	-125.4036560058591	202.9940490722656	1279.070434570312	-38.24487686157198	262.6796875	1193.333618164062	-26.86176490783665	141.1859893798828	1196.312744140625	-31.29832077026341	186.7014617919922	1090.580932617188	-18.64309120178198	171.9092407226562	1084.954467773438	-96.49052429199195	274.3309936523438	902.4362182617188	-2.587610244750776	315.3688049316406	834.0692138671875	-33.96385574340802	240.3405151367188	814.5070190429688	-13.49792289733869	299.9607543945312	744.7257080078125	18.56904029846208	262.863525390625	1443.9921875	-465.5682373046872	254.5126953125	1279.892456054688	-564.522033691406	322.5873413085938	1203.91552734375	-561.9635620117185	202.7583923339844	1199.159912109375	-594.505187988281	271.7355041503906	1099.22314453125	-602.9594726562498	220.059814453125	1083.960693359375	-547.0956420898435	414.8164367675781	955.3198242187501	-566.8497314453123	458.1537780761719	911.6782226562501	-510.5856323242185	425.2372131347656	869.8908081054689	-571.540588378906	516.4063720703125	854.6065063476564	-555.5538330078123	261.5867614746094	1035.612548828125	-140.699752807617	135.3088684082031	1012.230285644531	-306.2121582031248	247.7696685791016	1037.501098632812	-485.1317749023435	236.5181427001953	888.8352661132812	-126.470878601074	363.2685546875	631.602783203125	-153.6492309570311	409.9679260253906	666.4867553710938	-150.8239746093749	449.90576171875	573.1770629882812	-187.8284149169921	388.0658264160156	555.6592407226562	-175.1645660400389	441.8789978027344	339.9703063964844	-173.3773651123046	500.7713623046875	333.8186950683594	-187.0602416992187	518.6058349609375	251.261947631836	-203.0284576416015	455.4306945800781	240.7060699462891	-194.6337738037109	466.9795532226562	33.3525123596192	-278.6693420410156	628.1858520507812	36.34562301635746	-190.7647552490234	678.645751953125	64.68429565429693	-278.7566223144531	202.8750915527344	931.3920898437501	-487.2010803222654	206.1504669189453	640.6127929687501	-482.1862182617186	160.4821166992188	676.2187500000001	-495.3460693359373	116.9409637451172	582.5261840820314	-466.8380126953124	178.4436340332031	566.4603271484376	-460.584747314453	11.40362358093262	334.1464233398439	-456.0437011718749	-48.15739822387695	345.8061523437501	-459.5572509765624	-95.75440979003906	274.399871826172	-442.7553710937499	-38.89208984375	246.277313232422	-433.5685119628906	-230.5843658447266	136.986557006836	-374.6897888183593	-89.78538513183594	21.13173103332529	-425.8023986816406	-54.23945999145508	31.46058845520027	-324.8689270019531	
